<svg
    xmlns="http://www.w3.org/2000/svg"
    preserveAspectRatio="xMinYMin meet"
    width="196"
    height="30.7"
    viewBox="0 0 196 30.7"
    fill="#8d8d8d"
>
    <path
        d="M 18.644531 0.0078125 A 7.89 7.89 0 0 0 18.570312 0.01171875 L 0 0.01171875 L 0 5.2421875 L 3.9003906 5.2421875 L 3.9003906 30.242188 L 19.900391 30.242188 A 7.18 7.18 0 0 0 23 29.542969 A 7.61 7.61 0 0 0 25.470703 27.703125 A 8.55 8.55 0 0 0 27.089844 24.953125 A 9.55 9.55 0 0 0 27.669922 21.603516 A 7.22 7.22 0 0 0 22.849609 14.453125 L 22.849609 14.181641 C 24.909609 13.431641 26.509766 11.321719 26.509766 7.7617188 A 7.66 7.66 0 0 0 24.410156 2.1328125 A 7.89 7.89 0 0 0 18.644531 0.0078125 z M 36.509766 0.01171875 L 36.509766 30.203125 L 43.089844 30.203125 L 43.089844 19.132812 L 47.800781 19.132812 L 53.080078 30.203125 L 60.390625 30.203125 L 54.470703 18.353516 C 58.140703 17.013516 60 13.722109 60 9.6621094 C 60 3.9021094 56.410078 0.01171875 50.830078 0.01171875 L 36.509766 0.01171875 z M 75.300781 0.01171875 L 74.019531 4.2734375 L 67.779297 24.972656 L 67.779297 30.203125 L 74.349609 30.203125 L 74.349609 25.943359 L 80.369141 5.9726562 L 81.189453 5.9726562 L 87.210938 25.943359 L 87.210938 30.203125 L 93.789062 30.203125 L 93.789062 24.972656 L 87.550781 4.2734375 L 86.269531 0.01171875 L 75.300781 0.01171875 z M 99.630859 0.01171875 L 99.630859 5.2421875 L 105.86914 25.943359 L 105.86914 30.203125 L 112.43945 30.203125 L 112.43945 24.972656 L 106.19922 4.2734375 L 106.19922 0.01171875 L 99.630859 0.01171875 z M 118.30078 0.01171875 L 118.30078 5.2421875 L 124.5293 25.943359 L 124.5293 30.203125 L 131.10938 30.203125 L 131.10938 24.972656 L 124.86914 4.2734375 L 124.86914 0.01171875 L 118.30078 0.01171875 z M 139.90039 0.01171875 L 139.90039 30.203125 L 146.08984 30.203125 L 146.08984 9.8730469 L 146.2207 9.8730469 L 149.11914 15.931641 L 157.38086 30.203125 L 164.56055 30.203125 L 164.56055 0.01171875 L 158.38086 0.01171875 L 158.38086 20.341797 L 158.24023 20.341797 L 155.34961 14.292969 L 147.08984 0.01171875 L 139.90039 0.01171875 z M 184.74023 0.01171875 C 181.34023 0.07171875 178.67023 0.90343754 176.74023 2.5234375 A 8.07 8.07 0 0 0 173.86914 9.0117188 A 7.86 7.86 0 0 0 176.11914 15.011719 C 177.61914 16.418385 179.95247 17.313359 183.11914 17.693359 L 186.11914 18.082031 A 4.39 4.39 0 0 1 188.83984 19.181641 A 3 3 0 0 1 189.61914 21.322266 A 3.27 3.27 0 0 1 188.35938 24.011719 A 5.44 5.44 0 0 1 184.81055 25.011719 A 9.78 9.78 0 0 1 177.24023 21.511719 L 173 25.832031 A 14.55 14.55 0 0 0 184.38086 30.722656 A 15 15 0 0 0 190.7207 29.492188 A 9.16 9.16 0 0 0 194.7207 26.052734 A 9.41 9.41 0 0 0 196.09961 20.953125 A 8 8 0 0 0 193.85938 14.953125 L 193.85938 14.931641 C 192.35938 13.491641 190.06047 12.532969 186.98047 12.042969 L 183.98047 11.5625 A 6.38 6.38 0 0 1 181.25 10.671875 A 2.43 2.43 0 0 1 180.48047 8.6230469 C 180.48047 6.8030469 181.92078 5.8535156 184.80078 5.8535156 L 194 5.8535156 L 194 0.01171875 L 184.74023 0.01171875 z M 10.480469 5.5527344 L 17 5.5527344 A 2.74 2.74 0 0 1 19 6.2929688 A 2.74 2.74 0 0 1 19.740234 8.2929688 L 19.740234 9.5917969 A 2.75 2.75 0 0 1 19 11.591797 A 2.74 2.74 0 0 1 17 12.332031 L 10.480469 12.332031 L 10.480469 5.5527344 z M 43.089844 5.7226562 L 50 5.7226562 C 52 5.7226562 53.160156 6.7226563 53.160156 8.7226562 L 53.210938 10.613281 C 53.210938 12.613281 52.000781 13.613281 50.050781 13.613281 L 43.089844 13.613281 L 43.089844 5.7226562 z M 10.480469 17.751953 L 18.050781 17.751953 A 2.89 2.89 0 0 1 20.099609 18.462891 A 2.62 2.62 0 0 1 20.859375 20.462891 L 20.859375 21.953125 A 2.62 2.62 0 0 1 20.099609 23.953125 A 2.89 2.89 0 0 1 18.050781 24.662109 L 10.480469 24.662109 L 10.480469 17.751953 z"
    />
</svg>
