<svg xmlns="http://www.w3.org/2000/svg" fill="white" viewBox="0 0 113 24">
    <path
        d="M22.034 9.992c0-2.114-1.304-3.545-3.355-3.545h-5.262v11.096h2.417v-4.07h1.733l1.939 4.07h2.686l-2.177-4.356c1.35-.509 2.018-1.701 2.018-3.195Zm-2.496.35c0 .715-.445 1.096-1.16 1.096h-2.544V8.545h2.543c.716 0 1.16.381 1.16 1.097v.7ZM58.2 13.919h-.048l-1.066-2.226-3.035-5.246h-2.64v11.096h2.274v-7.471h.047l1.065 2.225 3.037 5.246h2.639V6.447H58.2v7.472ZM39.028 6.449l-2.417-.002V8.37l2.293 7.607v1.567h2.417V15.62l-2.293-7.606V6.449ZM45.888 6.449l-2.417-.002V8.37l2.293 7.607v1.567h2.417V15.62l-2.293-7.606V6.449ZM31.7 6.447h-4.03l-.47 1.566-2.294 7.605v1.923h2.417v-1.567l2.212-7.336h.301l2.212 7.336v1.567h2.417v-1.923l-2.293-7.605-.471-1.566ZM68.71 10.866l-1.113-.175c-.477-.074-.81-.183-1.001-.326-.19-.143-.286-.394-.286-.755 0-.667.53-1.016 1.59-1.016H71.3V6.447H67.9c-1.25.021-2.23.329-2.94.922-.71.594-1.066 1.399-1.066 2.384 0 .933.276 1.675.827 2.194.551.52 1.404.848 2.56.986l1.096.143c.477.063.811.198 1.002.405.19.207.286.469.286.787 0 .413-.149.742-.445.986-.297.243-.731.365-1.303.365-1.092 0-2.02-.43-2.783-1.287l-1.573 1.605c1.07 1.198 2.464 1.796 4.18 1.796.901 0 1.678-.15 2.33-.453.651-.302 1.147-.723 1.486-1.263.339-.54.508-1.166.508-1.876 0-.943-.275-1.68-.826-2.21-.551-.53-1.394-.885-2.528-1.065ZM8.403 11.752v-.096c.76-.277 1.345-1.054 1.345-2.362 0-.859-.257-1.547-.77-2.067-.515-.519-1.233-.779-2.155-.779L0 6.447v1.922h1.434v9.175h5.882c.413 0 .795-.082 1.145-.246.35-.164.651-.39.906-.676.254-.286.453-.622.596-1.01.143-.386.214-.796.214-1.231 0-1.463-.876-2.314-1.774-2.63ZM3.851 8.483h2.4c.318 0 .567.09.748.27.18.18.27.43.27.748v.476c0 .318-.09.567-.27.748-.18.18-.43.27-.748.27h-2.4V8.483Zm3.815 6.025c0 .318-.093.564-.278.74-.185.174-.437.261-.755.261H3.851v-2.543h2.782c.318 0 .57.087.755.262.185.175.278.421.278.74v.54ZM88.692 8.632a3.373 3.373 0 1 0 0 6.745 3.373 3.373 0 0 0 0-6.745Z" />
    <path
        d="M107.898 4.8V0H76.213v4.8l4.8 14.4V24h31.685v-4.8l-4.8-14.4ZM88.692 17.733a5.738 5.738 0 1 1 0-11.475 5.738 5.738 0 0 1 0 11.475Zm15.483-1.716c-.339.54-.834.961-1.486 1.263-.652.302-1.428.453-2.329.453-1.717 0-3.11-.598-4.18-1.796l1.573-1.605c.763.858 1.69 1.287 2.782 1.287.572 0 1.006-.121 1.303-.366.297-.243.446-.572.446-.985 0-.318-.096-.58-.287-.787-.19-.207-.524-.342-1.001-.405l-1.097-.144c-1.155-.137-2.008-.466-2.56-.985-.55-.519-.826-1.261-.826-2.194 0-.985.355-1.79 1.065-2.384.71-.593 1.69-.9 2.941-.922h3.402v2.146h-3.402c-1.06 0-1.59.35-1.59 1.017 0 .36.096.612.287.755.19.143.524.252 1.001.326l1.113.175c1.134.18 1.976.535 2.528 1.065.55.53.826 1.267.826 2.21 0 .71-.17 1.335-.509 1.876Z" />
</svg>